<svg width="615" height="123" viewBox="0 0 615 123" fill="none" xmlns="http://www.w3.org/2000/svg">
<path opacity="0.24" d="M152.078 31.6127C105.629 36.2832 57.7545 41.4186 16.8811 64.2637C11.4104 67.3281 5.85581 70.9419 2.83746 76.4577C-3.22018 87.5527 3.65493 102.177 14.3239 108.855C24.9929 115.533 38.1563 116.294 50.7117 116.844C274.279 126.586 498.181 122.761 721.937 118.957C786.915 117.858 852.92 116.59 915.195 97.7178C926.388 94.3365 938.692 89.2645 942.905 78.2118C948.417 63.7565 935.841 47.7375 921.169 43.2361C906.496 38.7347 890.838 42.0949 875.663 44.0603C822.968 50.8863 769.811 40.4465 717.346 32.0988C614.639 15.7838 508.075 2.51208 404.047 0.0394824C368.581 -0.784718 338.293 11.5149 303.582 16.3756C253.465 23.4341 202.467 26.5407 152.078 31.6127Z" fill="#505F98"/>
</svg>
