<svg width="14" height="46" viewBox="0 0 14 46" fill="none" xmlns="http://www.w3.org/2000/svg">
<path d="M6.71158 43.8672L12.8188 35.4335L6.69632 44.7932L6.68005 45.7615C6.25275 45.7524 5.82952 45.7323 5.41138 45.7042L6.06963 33.2698L6.06454 33.1732L6.07573 33.1551L6.13779 31.9808L0 22.5979L6.15711 31.1L6.17137 31.3493L6.66884 21.9544L1.41415 12.2588L6.73294 20.3054L7.25078 0.827852L7.25281 0.761475V0.825828L7.16634 16.1851L12.3976 10.0961L7.14498 17.5082L7.00662 25.9198L11.891 17.8471L6.98628 27.1576L6.90896 31.8339L14 20.598L6.8825 33.4658L6.71158 43.8672Z" fill="#3F3D56"/>
</svg>
