<svg width="68" height="68" viewBox="0 0 68 68" fill="none" xmlns="http://www.w3.org/2000/svg">
<path d="M44.2508 1.7442C44.2508 1.7442 31.2967 5.68454 24.8196 1.7442C18.3426 -2.19614 2.86958 9.26666 0.350721 14.2816C-2.16814 19.2966 9.70648 24.3116 9.70648 24.3116C9.70648 24.3116 6.31555 33.9959 7.00771 38.8192C7.72738 43.8342 6.46795 54.0432 6.46795 54.0432C6.46795 54.0432 38.2581 74.8931 45.3303 65.506C46.4098 64.0732 55.4057 30.4012 55.4057 30.4012L68 17.8637C68 17.8637 60.0836 6.40094 55.4057 5.32631C50.7279 4.25167 44.2508 1.7442 44.2508 1.7442Z" fill="#D0CDE1"/>
</svg>
