<svg width="21" height="13" viewBox="0 0 21 13" fill="none" xmlns="http://www.w3.org/2000/svg">
<path d="M0.469672 11.1612C1.06307 11.8832 2.0792 12.0285 2.99854 12.1238C4.18631 12.2974 5.39095 12.3206 6.58443 12.1929C8.00236 11.9801 9.72976 13.2072 11.0252 12.5822C11.8086 12.2042 13.0149 12.4011 13.7983 12.0231C14.8723 11.505 19.9218 12.6605 20.5756 11.6491C21.2295 10.6377 21.163 9.03994 20.1291 8.44303C19.8359 8.30263 19.5333 8.18327 19.2234 8.08585C17.4925 7.39145 11.7675 1.03504 9.92599 0.766809C9.01227 0.723999 8.10488 0.939534 7.30625 1.38908C5.49051 2.20158 2.28411 2.84336 1.49188 4.90554C0.874683 6.51213 -0.814177 9.59083 0.469672 11.1612Z" fill="#2F2E41"/>
</svg>
