<svg width="109" height="170" viewBox="0 0 109 170" fill="none" xmlns="http://www.w3.org/2000/svg">
<path d="M69.2857 0.934814L59.9089 18.5696C59.9089 18.5696 -7.89203 31.5258 0.76341 51.6799C9.41885 71.8339 19.1562 101.345 24.2052 100.625C29.2542 99.9057 57.0238 84.0704 58.1057 79.3917C59.1876 74.7131 33.2213 52.7596 33.2213 52.7596L76.1379 44.482C76.1379 44.482 82.2688 73.2735 74.3346 93.0677C66.4005 112.862 61.7121 166.486 67.1218 167.206C72.5314 167.926 86.2359 172.244 92.3668 168.286C98.4977 164.327 101.383 77.5922 101.383 77.5922C101.383 77.5922 114.366 20.729 106.432 14.2509C98.4978 7.7728 69.2857 0.934814 69.2857 0.934814Z" fill="#2F2E41"/>
</svg>
