<svg width="20" height="19" viewBox="0 0 20 19" fill="none" xmlns="http://www.w3.org/2000/svg">
<path d="M15.6845 5.37139C15.6833 5.96365 15.7301 6.55502 15.8245 7.13964C15.952 7.73104 16.1325 8.30965 16.3638 8.86838C16.673 9.77688 17.1092 10.6366 17.6592 11.4219C18.2182 12.212 19.0547 12.7596 20 12.9541C13.6776 15.9314 6.92847 17.8911 0 18.7615C1.0916 18.0318 1.99981 17.0576 2.6532 15.9156C2.99972 15.1823 3.23644 14.4015 3.35566 13.5987C3.94578 10.239 3.64608 6.7825 2.48662 3.57597C2.37173 3.25976 2.25945 2.87174 2.47693 2.61568C2.5695 2.52104 2.68153 2.44788 2.80519 2.4013C5.5524 1.23275 8.51921 0.676835 11.501 0.771902C12.263 0.777207 13.0247 0.811069 13.7847 0.866184C14.1935 0.895828 15.0964 0.809459 15.4213 1.11025C15.8092 1.46929 15.6148 2.58341 15.627 3.07022L15.6845 5.37139Z" fill="#A1616A"/>
</svg>
