<svg width="49" height="113" viewBox="0 0 49 113" fill="none" xmlns="http://www.w3.org/2000/svg">
<path d="M41.0879 3.60433C41.6532 4.68164 42.1469 5.79444 42.566 6.93561C47.5815 20.0968 48.0014 34.479 48.2086 48.5476C48.1913 50.835 48.323 53.1212 48.6028 55.3919C48.813 56.8317 49.1449 58.2871 48.9308 59.7263C48.7456 60.9707 48.1554 62.1981 48.3908 63.4342C48.4964 63.9886 48.7643 64.5027 48.8696 65.0572C48.9512 65.6651 48.9344 66.282 48.8198 66.8847L48.1474 71.8474C47.7643 74.6745 46.8803 77.3974 46.9284 80.2495C46.9613 82.1949 46.9943 84.1438 47.2127 86.0774C47.4344 88.0408 47.8472 89.9891 47.8684 91.9646C47.8842 93.444 47.68 94.9157 47.5481 96.3894C47.3619 98.4705 47.3196 100.562 47.4217 102.649C47.5003 104.257 47.6863 105.926 48.5459 107.292C47.5827 108.662 46.6293 109.889 45.0871 110.56C41.9535 111.923 38.3579 111.461 34.9718 110.973C35.1594 110.353 35.4498 109.651 35.1791 109.062C35.0197 108.777 34.8243 108.513 34.5976 108.277C33.8585 107.234 33.3455 106.051 33.0909 104.801C32.681 103.32 32.2706 101.725 33.1124 100.303C33.4024 99.7964 33.5304 99.2146 33.4794 98.6345C32.7783 89.3046 30.6857 79.6517 32.6128 70.4952C32.8185 69.5179 33.0636 68.5462 33.1785 67.5543C33.2821 66.1276 33.2993 64.6959 33.2301 63.2671L33.1898 61.2782C33.0895 59.1558 33.1763 56.9808 32.7472 54.8815C32.4398 53.378 31.8659 51.8674 32.5733 50.3354C32.8861 49.6234 32.8473 48.8076 32.4685 48.1279C30.981 45.5429 29.7846 42.8035 28.9009 39.9591C28.7175 39.1642 28.4662 38.3862 28.1498 37.6336C27.7183 36.8405 27.2223 36.0836 26.6668 35.3704C24.9889 32.9567 23.9854 30.1559 23.0004 27.3916C23.1053 27.1379 23.0247 26.7852 22.7507 26.8217C22.4799 26.8901 22.2475 27.0623 22.1044 27.3005C20.7548 29.0998 20.6415 31.5002 20.5809 33.7422C20.4784 35.8252 20.5143 37.9127 20.6883 39.991C20.8038 41.0799 20.9951 42.1602 21.0935 43.2507C21.2228 45.2854 21.1903 47.327 20.9962 49.3567L20.3072 59.3439C20.2137 60.1696 20.2639 61.0051 20.4555 61.8139C20.8979 63.2136 21.1133 64.6741 21.0938 66.1408C20.9125 72.1737 21.4383 78.2071 22.6607 84.1196C22.9972 85.752 23.3863 87.3742 23.6719 89.0161C24.3449 92.8855 24.437 96.8281 24.5276 100.754C24.5833 103.167 24.6231 105.668 23.6645 107.887C23.2899 108.571 23.0149 109.304 22.8477 110.065C22.8443 110.457 22.7917 110.848 22.6912 111.227C22.4098 111.945 21.5655 112.251 20.8065 112.415C19.3802 112.723 17.9169 112.826 16.4611 112.722C16.1193 112.717 15.7821 112.642 15.4701 112.504C14.9271 112.225 14.6388 111.633 14.2258 111.186C13.3351 110.221 11.8543 109.925 11.0427 108.894C10.028 107.604 10.4541 105.735 11.0581 104.212C11.6621 102.69 12.4098 101.036 11.8899 99.4837C11.277 97.6536 9.10473 96.6682 8.52158 94.8286C10.186 87.4096 6.09862 79.7364 6.44892 72.1439C6.53051 70.3755 6.83997 68.6196 6.84616 66.8493C6.86213 62.2891 4.87081 57.852 5.19837 53.3033C6.03079 41.744 2.06178 30.2043 0.38035 18.7362C0.0615585 17.0244 -0.0574589 15.2819 0.0256492 13.5431C0.275183 10.6726 1.6187 8.00103 3.23439 5.60669C4.39202 3.89115 5.78414 2.21204 7.70166 1.40955C9.28075 0.748688 11.0501 0.751483 12.764 0.764652C17.04 0.797506 21.316 0.830361 25.5914 0.906619C28.501 0.866 31.4069 1.12395 34.263 1.67636C36.5757 2.20119 38.7394 3.27083 41.0879 3.60433Z" fill="#2F2E41"/>
</svg>
