<svg width="50" height="57" viewBox="0 0 50 57" fill="none" xmlns="http://www.w3.org/2000/svg">
<path d="M45.7754 41.9991C44.7387 43.7712 43.9789 45.6904 43.5222 47.6904C42.8379 50.6445 42.4595 53.6607 42.393 56.6917C31.2204 57.0358 18.6445 56.0527 8.60133 54.9384C7.7133 52.5789 6.73747 49.8643 5.7836 47.1278C3.21246 39.7324 0.822312 32.184 0.822312 31.0752C0.822312 28.8904 12.3347 32.7138 15.0757 32.1676C17.8168 31.6214 18.9132 22.8823 15.0757 18.5128C11.2383 14.1432 0 6.7696 0 6.7696L3.83746 5.67722C3.83746 5.67722 12.3347 11.9584 29.8773 22.3361C47.42 32.7138 40.2933 16.328 40.2933 16.328L30.1515 0.761475H34.5371C34.5371 0.761475 43.0343 15.2356 47.42 21.7899C51.8057 28.3443 50.161 34.8986 45.7754 41.9991Z" fill="#3F3D56"/>
</svg>
