<svg width="60" height="129" viewBox="0 0 60 129" fill="none" xmlns="http://www.w3.org/2000/svg">
<path d="M19.6056 117.747L49.0005 128.761C49.0005 128.761 61.2021 119.95 55.1013 110.037C49.0005 100.123 21.2695 42.8469 21.2695 42.8469C21.2695 42.8469 13.5048 31.8322 23.488 25.7741C33.4711 19.7161 37.3534 29.6293 37.3534 29.6293C37.3534 29.6293 36.7988 31.8322 40.6812 30.18C44.5635 28.5278 51.7736 34.0352 47.8912 42.8469C44.0089 51.6587 41.2358 53.8616 49.5551 53.3109C52.5593 53.112 55.2018 50.9741 57.3522 48.3235C61.4739 43.243 59.6338 39.151 59.322 32.6344C58.7878 21.4712 57.9144 14.1925 55.1013 9.80284C51.2189 3.74476 45.6727 -1.21185 31.2526 1.54183C16.8325 4.2955 -4.24303 18.0639 0.748548 37.8903C5.74012 57.7167 16.8325 79.7461 16.8325 79.7461C16.8325 79.7461 24.5972 110.587 19.6056 117.747Z" fill="#111B47"/>
</svg>
