<svg width="10" height="31" viewBox="0 0 10 31" fill="none" xmlns="http://www.w3.org/2000/svg">
<path d="M7.59088 4.13669C7.83319 4.78567 8.01477 5.45709 8.13312 6.14178C8.83424 9.64907 9.27624 13.2052 9.71196 16.7581C9.82824 17.7062 9.94425 18.6559 9.98014 19.6109C10.1034 21.8785 9.65137 24.1401 8.66871 26.1724C7.66947 28.2097 5.97053 29.7897 3.90343 30.6041C3.26671 30.8376 2.37672 30.8801 2.09869 30.2445C1.99971 29.9505 2.00191 29.6302 2.10493 29.3377C2.35621 28.3915 2.86773 27.5425 3.19955 26.6231C3.69189 25.2497 3.77401 23.7556 3.43531 22.3335C3.30457 21.7899 3.02892 21.1831 2.4964 21.0746C2.76217 22.3286 2.53833 23.6401 1.87342 24.7249C1.72203 25.0271 1.46107 25.2555 1.14735 25.3602C0.693979 25.407 0.269424 25.1242 0.124004 24.6786C-0.0059622 24.2413 -0.0342528 23.7785 0.0414257 23.3279C0.212211 21.0489 0.548405 18.7863 1.04718 16.5592C1.64082 14.1145 2.58183 11.7027 2.52145 9.18329C2.46672 6.9001 1.58538 4.65863 1.83224 2.389C1.83564 2.24874 1.87947 2.11271 1.95811 1.99827C2.03547 1.91851 2.12983 1.85851 2.23365 1.82309C2.85133 1.55954 3.48668 1.34248 4.13472 1.17361C4.5175 1.07383 5.82509 0.60526 6.19185 0.814837C6.48904 0.984618 6.58066 2.00154 6.72907 2.34577C6.99177 2.9552 7.3419 3.52024 7.59088 4.13669Z" fill="#A1616A"/>
</svg>
