<svg width="11" height="51" viewBox="0 0 11 51" fill="none" xmlns="http://www.w3.org/2000/svg">
<path opacity="0.1" d="M1.46715 0.761475L0.893546 5.08917C0.69936 6.55425 0.505067 8.02037 0.40051 9.49415C0.0526922 14.3967 0.7011 19.319 0.530446 24.2305C0.399051 28.012 -0.217496 31.7906 0.0803384 35.5631C0.343758 38.8997 1.3157 42.139 2.28209 45.3496L3.66341 49.9387C3.68631 50.2166 3.84056 50.4683 4.08055 50.6192C4.32054 50.7701 4.61882 50.803 4.88721 50.7082L11 50.1668C10.6085 48.413 10.1731 46.5848 9.96275 44.8015C9.79635 43.3912 9.69637 41.9744 9.59202 40.5584C9.26672 36.1446 8.89844 31.7339 8.53017 27.3233L7.88322 19.5751C7.6026 16.2142 7.31862 12.8335 6.45267 9.56926C5.58974 6.26475 3.87311 3.23203 1.46715 0.761475Z" fill="black"/>
</svg>
