<svg width="26" height="26" viewBox="0 0 26 26" fill="none" xmlns="http://www.w3.org/2000/svg">
<path d="M5.59923 19.8902C4.34946 19.221 4.67871 17.4043 4.46631 16.0091C4.02934 13.1387 0.766077 11.4358 0 8.63427C0.880087 8.74177 1.77312 8.61609 2.5886 8.26996C2.74599 7.33979 2.56074 6.3844 2.06684 5.57901C4.75067 4.49521 6.92271 2.3685 9.64782 1.39177C13.0748 0.163484 16.8912 0.917328 20.3482 2.05934C22.0731 2.62913 23.868 3.36877 24.9108 4.84861C26.0562 6.47403 26.0389 8.61336 25.9773 10.5969C25.8808 13.7079 25.7574 16.9304 24.364 19.7177C22.5899 23.2665 17.5671 26.5534 13.4172 25.592C11.6913 25.1922 11.1834 24.115 10.4559 22.6241C10.0031 21.6962 9.83304 20.6189 8.81359 20.1363C7.81731 19.6646 6.61043 20.4316 5.59923 19.8902Z" fill="#2F2E41"/>
</svg>
