<svg width="43" height="105" viewBox="0 0 43 105" fill="none" xmlns="http://www.w3.org/2000/svg">
<path d="M42.9989 52.716C43.0691 63.7626 39.8876 74.5598 36.156 84.9435C34.6786 89.0541 33.1109 93.1288 31.4529 97.1677C30.4713 99.5614 29.3653 102.217 30.4172 104.58C27.3902 103.417 24.2909 102.729 21.0953 103.267C22.3117 100.763 22.1973 97.8487 22.2515 95.0617C22.3571 91.2775 22.7605 87.5078 23.4579 83.7882C24.5283 78.1284 26.3648 72.6443 28.9157 67.49C29.4328 66.4032 29.7893 65.2457 29.9735 64.0544C30.3047 61.4051 30.1523 58.717 29.5239 56.1232C28.3579 50.3772 26.1444 44.9001 22.9962 39.9709C22.9862 40.0804 22.9761 40.1919 22.9641 40.3013C22.7737 41.9441 22.4997 43.5759 22.1431 45.1902C21.4285 48.6115 20.5955 52.035 20.7199 55.4746C20.8539 59.1228 20.63 62.7755 20.0515 66.3793C19.8678 67.7952 19.5028 69.181 18.9656 70.5019C18.6163 71.2924 18.1607 72.0363 17.8856 72.8551C17.6128 73.8018 17.4703 74.7819 17.4621 75.7678C17.0546 84.0861 17.4561 94.7304 19.1402 102.885C16.3022 102.753 13.482 103.401 10.9806 104.761C8.94515 98.9626 7.64845 90.7262 6.67894 84.6192C5.58105 77.4048 5.80421 70.0482 7.33731 62.9153C7.81416 60.5353 7.99288 58.1043 7.86927 55.6793C7.65246 50.8492 6.4762 46.1245 5.30797 41.4364C4.71382 39.0568 4.11966 36.6765 3.52547 34.2956C2.68041 30.9046 1.83401 27.513 0.986265 24.1206C0.424216 21.8647 -0.143837 19.5601 0.0328049 17.2394C0.15693 15.967 0.421524 14.7127 0.821657 13.4998C2.08618 9.372 3.97675 5.46711 6.42602 1.92421C16.1794 2.47755 26.0513 1.55531 35.7906 0.799279C36.2642 0.704669 36.7557 0.789067 37.1717 1.03643C37.5023 1.37693 37.6992 1.82712 37.7257 2.30325C38.9461 9.28182 40.1659 16.2604 41.385 23.239C41.9787 26.1532 42.3272 29.1128 42.4268 32.0863C42.4448 35.0496 41.9691 38.0028 42.0795 40.9641C42.228 44.953 42.9748 48.7251 42.9989 52.716Z" fill="#2F2E41"/>
</svg>
