<svg width="125" height="207" viewBox="0 0 125 207" fill="none" xmlns="http://www.w3.org/2000/svg">
<path d="M125 206.292H73.37C70.4455 184.954 69.0933 165.4 69.0933 165.4C69.0933 165.4 68.3386 185.069 66.3312 206.292H0C9.40252 143.451 53.978 75.3073 53.978 75.3073C53.978 75.3073 54.3658 66.0245 55.5294 64.4765C56.6929 62.9337 48.9413 62.5468 45.4507 50.9471C43.3228 43.8661 45.2359 39.2325 47.0545 36.7013C47.6788 35.7891 48.4469 34.9838 49.3291 34.3165C49.3291 34.3165 50.1048 26.1999 49.3291 25.0389C49.2296 24.8873 49.9947 24.3538 51.4099 23.5432C52.5891 22.8634 54.2191 21.99 56.1688 20.9859C67.3375 15.207 88.957 4.98284 96.3627 1.49982C97.9874 0.731047 98.9308 0.291748 98.9308 0.291748L112.107 4.93054C122.568 8.40833 122.568 30.4517 122.568 30.4517L121.976 31.3513L106.164 55.2512L96.9916 69.1205C99.3187 70.6633 94.6698 80.3331 94.6698 80.3331C94.6698 80.3331 101.295 89.8303 106.682 104.327C109.729 112.395 111.807 120.795 112.872 129.352C113.551 134.897 113.685 140.495 113.27 146.066C111.834 164.694 118.218 187.334 125 206.292Z" fill="#2F2E41"/>
</svg>
