<svg width="38" height="70" viewBox="0 0 38 70" fill="none" xmlns="http://www.w3.org/2000/svg">
<path d="M37.8375 12.2578C38.4466 10.0736 37.2487 7.80013 35.8156 6.02586C34.2757 4.11947 32.286 2.39935 29.8565 1.92056C27.8821 1.53147 25.8362 2.0012 23.8287 1.84485C22.0493 1.70628 20.3443 1.07972 18.5741 0.854894C16.9728 0.686054 15.355 0.746308 13.7713 1.03377C12.2659 1.24942 10.7946 1.65293 9.39321 2.23453C4.06086 4.55455 0.936453 10.2845 0.211486 15.9671C-0.513481 21.6497 0.75776 27.3749 2.02147 32.9659L3.16378 38.0198C4.35274 43.2801 5.54569 48.5678 5.86381 53.947C6.18193 59.3263 5.58836 64.8485 3.33485 69.7615C10.6209 65.9185 16.2662 59.6424 19.2499 52.068C20.0602 49.9878 20.6601 47.8295 21.5576 45.784C22.3299 44.0242 23.3185 42.3574 24.0029 40.563C24.7749 38.5357 25.1455 36.3823 25.095 34.2186C25.056 32.5924 24.7789 30.9739 24.8272 29.348C24.8755 27.7221 25.2967 26.0254 26.4413 24.8496C27.4588 23.8044 28.9045 23.3023 30.2156 22.6443C32.2775 21.6046 34.0788 20.1287 35.4896 18.3229C36.3151 17.2666 36.3591 16.8156 36.5691 15.5972C36.7733 14.412 37.5168 13.4079 37.8375 12.2578Z" fill="#2F2E41"/>
</svg>
