<svg width="26" height="18" viewBox="0 0 26 18" fill="none" xmlns="http://www.w3.org/2000/svg">
<path opacity="0.1" d="M1.84662 6.20118C1.49031 6.89961 1.1802 7.62067 0.918293 8.35974C0.223525 10.4002 0.118526 12.5872 0.0196769 14.7405C-0.0277558 15.156 0.0107877 15.5769 0.13291 15.9769C0.429861 16.7509 1.28595 17.143 2.08624 17.3584C5.43775 18.26 8.97161 17.4114 12.4284 17.102C15.8213 16.7984 19.2776 17.018 22.6008 16.2693C23.092 16.1767 23.5667 16.0117 24.0095 15.7799C24.852 15.232 25.4804 14.4109 25.7895 13.4544C25.8906 13.2097 25.9586 12.9527 25.9916 12.69C26.1014 11.5571 25.1143 10.5727 24.0392 10.2004C22.9641 9.82798 21.7951 9.88949 20.6633 9.77315C15.8768 9.28109 12.0155 5.6376 11.245 0.88601C11.2049 0.638676 5.6487 0.784614 5.06389 1.10555C4.37939 1.48123 3.96509 2.41904 3.57947 3.05258C2.95641 4.07622 2.3788 5.12575 1.84662 6.20118Z" fill="black"/>
</svg>
