<svg width="16" height="60" viewBox="0 0 16 60" fill="none" xmlns="http://www.w3.org/2000/svg">
<path d="M11.3143 0.761475C11.5724 1.03047 11.7886 1.33863 11.9552 1.67512C13.6742 4.87659 13.696 8.70869 13.7768 12.3618C13.8678 16.4741 14.0874 20.582 14.307 24.6892L14.9638 36.9721C15.0265 38.1455 15.0894 39.3207 15.25 40.4844C16.0226 40.6842 16.0546 41.7071 15.965 42.5184C15.412 47.5309 14.0359 52.6909 15.477 57.5144C15.5321 57.7629 15.6481 57.9929 15.814 58.1827C15.0876 57.9478 14.3099 57.937 13.5776 58.1517C12.8592 58.3069 12.1685 58.5761 11.4527 58.7431C10.5418 58.9556 9.50922 59.0468 8.88776 59.7615C8.18557 57.594 7.62641 55.3805 7.21405 53.1361C6.87286 51.0965 6.77999 48.9757 5.96902 47.0805C5.64153 46.3152 5.20401 45.6057 4.80477 44.877C2.70436 41.0434 1.676 36.7073 0.670933 32.4331C0.219695 30.4064 0.111522 28.3154 0.351132 26.2512C0.49388 25.3094 0.577698 24.3591 0.602071 23.4063C0.538084 22.4011 0.409538 21.4014 0.217268 20.4135C-0.207034 17.5158 -0.0082891 14.5582 0.799597 11.7475C1.55226 9.13723 2.2122 6.39119 3.78625 4.1988C5.36029 2.00641 8.65836 0.798464 11.3143 0.761475Z" fill="#111B47"/>
</svg>
