<svg width="10" height="26" viewBox="0 0 10 26" fill="none" xmlns="http://www.w3.org/2000/svg">
<path d="M1.89337 7.67735C2.02055 8.96886 1.7861 10.2927 2.06835 11.5593C2.28048 12.5113 2.77339 13.3763 3.06319 14.3076C3.351 15.3867 3.49904 16.4984 3.50367 17.6153C3.54555 18.552 3.47373 19.6909 2.64583 20.1299C2.28225 20.3227 1.84606 20.3264 1.46763 20.4881C1.08921 20.6499 0.76448 21.109 0.981179 21.459C1.16343 21.7534 1.57703 21.7569 1.916 21.8265C2.25497 21.8961 2.62798 22.2476 2.43126 22.5325C2.35224 22.6256 2.24698 22.6926 2.12925 22.7249C1.78267 22.8292 1.45454 22.9872 1.15677 23.193C0.855793 23.4076 0.701039 23.7734 0.756521 24.139C0.797774 24.3139 0.917191 24.4601 1.08029 24.5353C1.24339 24.6105 1.432 24.6064 1.59167 24.5242C1.43978 24.8488 1.35682 25.2014 1.34803 25.5597C2.67269 26.1297 4.16382 25.3845 5.41052 24.6595C5.95115 24.3595 6.47311 24.027 6.97352 23.6639C9.01177 22.0888 10.1396 19.607 9.98613 17.0346C9.92835 16.3969 9.83064 15.7635 9.69356 15.1381C9.50027 14.0505 9.24512 12.9749 8.92935 11.9164C8.57299 10.7999 8.08315 9.73146 7.66301 8.63741C6.76781 6.3062 6.19151 3.86549 5.38544 1.50193C5.36208 1.27363 5.24468 1.06541 5.06148 0.927351C4.87829 0.789292 4.64588 0.73389 4.42016 0.774472C3.51183 0.727155 2.60142 0.811001 1.71697 1.02343C1.18249 1.17958 0.305754 1.52321 0.0661786 2.08341C-0.149683 2.58817 0.212121 3.04016 0.441654 3.47253C1.19333 4.76673 1.68638 6.19483 1.89337 7.67735Z" fill="#EFB7B9"/>
</svg>
