<svg width="105" height="142" viewBox="0 0 105 142" fill="none" xmlns="http://www.w3.org/2000/svg">
<path d="M15.7021 3.95381C12.268 4.24116 8.95965 5.38444 6.07681 7.28003C1.13919 11.1711 0.764178 18.4302 0.847513 24.7479C0.678306 33.5011 1.28488 42.2521 2.66006 50.8974C4.13926 58.826 6.82683 66.4407 9.03522 74.2019C12.5162 86.8314 14.3441 99.8623 14.4729 112.966C14.4729 120.162 14.3479 128.07 18.8271 133.697C23.7231 139.806 32.39 140.998 40.1819 141.438C51.2446 142.086 62.3491 142.17 73.4119 141.709C80.8287 141.375 88.7248 140.643 94.5999 136.082C99.2875 132.442 110.267 9.28831 101.746 6.17129C93.2249 3.05427 84.058 2.25932 75.0161 1.50621C54.7447 -0.209194 35.6609 -1.56897 15.7021 3.95381Z" fill="#505F98"/>
</svg>
