<svg width="32" height="19" viewBox="0 0 32 19" fill="none" xmlns="http://www.w3.org/2000/svg">
<path d="M29.7027 9.06284C30.6504 9.75867 31.3689 10.709 31.7698 11.797C31.9839 12.6823 31.9 13.6112 31.5305 14.4464C30.4675 16.5842 28.4382 18.1137 26.047 18.5795C23.6899 19.0354 21.2731 19.1213 18.8881 18.8338L11.3157 18.3251C9.38958 18.2844 7.47844 17.9848 5.63642 17.4349C3.77943 16.8642 2.25004 15.5664 1.41504 13.853C0.967243 12.5945 0.789495 11.2599 0.892809 9.93184C0.892809 3.78524 3.06878 -1.2804 10.0101 0.28804C17.2063 1.61855 23.9637 4.62958 29.7027 9.06284Z" fill="#505F98"/>
</svg>
