<svg width="19" height="12" viewBox="0 0 19 12" fill="none" xmlns="http://www.w3.org/2000/svg">
<path d="M18.5249 10.5832C17.9246 11.2651 16.8966 11.4023 15.9666 11.4923C14.765 11.6563 13.5463 11.6782 12.339 11.5575C10.9045 11.3566 10.0453 12.124 8.73475 11.5338C7.94218 11.1768 6.72192 11.8907 5.92935 11.5338C4.84285 11.0444 1.09074 10.9431 0.429293 9.98795C-0.232152 9.03281 -0.16489 7.52379 0.881062 6.96006C1.17763 6.82747 1.48378 6.71474 1.79723 6.62272C3.54835 5.96692 7.09559 1.01984 8.95852 0.766511C9.88287 0.726087 10.8008 0.929641 11.6087 1.3542C13.4456 2.12154 16.6893 2.72765 17.4908 4.67522C18.1151 6.19252 19.8236 9.1001 18.5249 10.5832Z" fill="#2F2E41"/>
</svg>
