<svg width="124" height="202" viewBox="0 0 124 202" fill="none" xmlns="http://www.w3.org/2000/svg">
<path d="M123.687 109.507C123.201 122.102 113.439 168.388 113.122 181.004C113.122 185.202 114.242 191.647 112.889 195.698C110.1 204.284 100.211 203.108 98.9218 198.049L98.4358 195.53C93.8504 171.012 101.225 143.198 98.4358 111.186C96.7665 91.6428 88.9904 53.9628 83.8979 53.7109C81.2143 53.7109 19.9566 182.851 14.6317 190.807C12.0115 194.817 4.63688 194.187 1.0658 197.42C-2.50528 200.652 30.8177 99.5146 44.7851 46.07C48.0426 35.0391 50.1666 23.7088 51.1243 12.2525C51.5046 5.64011 49.3704 3.415 55.4772 1.46278C59.7033 0.119314 65.5565 0.497163 70.0785 0.182289C75.0019 -0.19556 120.792 -0.279526 120.792 2.95318C120.348 20.5022 124.87 80.4122 123.687 109.507Z" fill="url(#paint0_linear_108_1405)"/>
<defs>
<linearGradient id="paint0_linear_108_1405" x1="125.015" y1="86.5115" x2="28.9217" y2="-78.2681" gradientUnits="userSpaceOnUse">
<stop stop-color="#010101" stop-opacity="0.01"/>
<stop offset="0.95" stop-color="#010101"/>
</linearGradient>
</defs>
</svg>
