<svg width="43" height="67" viewBox="0 0 43 67" fill="none" xmlns="http://www.w3.org/2000/svg">
<path d="M32.8634 6.97505C31.5287 5.12982 29.7168 3.67738 27.6195 2.77141C26.4121 2.34206 25.1639 2.03601 23.8941 1.85801L18.9192 0.989061C17.7 0.776095 16.395 0.572366 15.2639 1.07225C14.6858 1.36224 14.1594 1.74452 13.7059 2.20386C11.9767 3.79475 10.301 5.54459 8.13314 6.46286C7.53961 6.71426 6.91889 6.89829 6.32629 7.15184C3.90068 8.18959 2.08712 10.3563 1.0567 12.7723C-0.0242746 15.3067 -0.0555907 18.0539 0.0297424 20.8052C0.0270444 21.7547 0.121001 22.7019 0.310179 23.6326C0.561168 24.5183 0.876528 25.3847 1.25378 26.225C1.9408 28.0197 2.51618 29.8547 2.97666 31.7196C4.26548 36.6214 5.33696 41.573 6.19111 46.5743C6.26556 47.2932 6.47838 47.9913 6.81799 48.6305C7.29804 49.2666 7.87891 49.8209 8.53789 50.272C9.0597 50.7015 9.54203 51.1763 9.97916 51.6907C10.1924 51.9103 10.3488 52.1782 10.4346 52.4712C10.596 53.2106 9.9383 53.8441 9.40449 54.3837C8.29557 55.5077 7.494 56.8944 7.07581 58.4125C6.81525 58.7238 6.68307 59.1217 6.70589 59.5259C6.81268 59.8059 6.85245 60.1067 6.82205 60.4045C6.71967 60.6765 6.55977 60.9234 6.35315 61.1287C5.87209 61.7511 5.68363 62.5489 5.8358 63.319C9.70092 64.9875 13.8373 65.9495 18.0462 66.159C19.0769 66.2067 20.1116 66.2071 21.1356 66.3325C21.866 66.4219 22.5875 66.5745 23.3184 66.6593C24.3817 66.7583 25.4505 66.7854 26.5175 66.7404C32.0675 66.6311 37.7804 66.4883 42.8769 64.3021C43.357 61.705 42.3227 59.0588 41.6739 56.4982C40.6421 52.4258 40.3821 48.2024 39.6144 44.0728C39.089 41.2464 38.3258 38.4649 37.8882 35.6238C37.4506 32.7827 37.348 29.837 38.1341 27.071C38.8308 24.6199 39.041 22.1243 39.7631 19.6805C40.4852 17.2367 40.9912 14.5872 40.176 12.1725C39.1653 9.1784 36.0376 6.8097 32.8634 6.97505Z" fill="#111B47"/>
</svg>
