<svg width="13" height="17" viewBox="0 0 13 17" fill="none" xmlns="http://www.w3.org/2000/svg">
<path d="M10.6412 8.88603C10.2122 6.81558 11.023 4.60074 10.3887 2.58218C10.16 1.8543 9.59807 1.09778 8.82544 1.11888C8.07465 1.13938 7.56674 1.86393 6.9012 2.2071C5.82843 2.76024 4.5254 2.25786 3.45329 1.70347C2.38118 1.14908 1.18594 0.521766 0.0231643 0.854065C-0.113673 1.57216 0.377944 2.2568 0.913151 2.76222C1.50577 3.20369 1.99633 3.76443 2.35221 4.40719C2.52652 5.10209 2.59279 5.81904 2.54876 6.53355C2.6705 8.17372 3.72422 9.58583 4.77687 10.8616C6.47303 12.9172 8.27419 14.8864 10.1734 16.7615C10.1702 16.7583 13.0546 13.2392 12.9992 12.6245C12.947 12.0449 11.9765 11.5024 11.6239 11.035C11.1412 10.398 10.8057 9.66448 10.6412 8.88603Z" fill="#A1616A"/>
</svg>
