<svg width="12" height="22" viewBox="0 0 12 22" fill="none" xmlns="http://www.w3.org/2000/svg">
<path opacity="0.1" d="M12 16.9421C11.806 18.5615 11.5268 20.1701 11.1634 21.7615C9.00153 18.109 6.67188 14.5485 4.68178 10.8041C4.1684 9.83903 3.67959 8.86198 3.18868 7.88692C2.69986 6.91186 2.21102 5.93681 1.72216 4.96177C1.44807 4.41428 1.17198 3.8648 0.924472 3.30336C0.520191 2.49462 0.210093 1.64411 0 0.767804C0.724033 0.637935 2.50756 2.54408 3.04344 3.0416C4.14268 4.10051 5.1806 5.21849 6.15234 6.39035C7.3281 7.69019 8.40738 9.07036 9.38193 10.5203C10.6274 12.4973 11.5132 14.67 12 16.9421Z" fill="black"/>
</svg>
