<svg width="22" height="22" viewBox="0 0 22 22" fill="none" xmlns="http://www.w3.org/2000/svg">
<path d="M4.46641 5.97614C3.15783 6.82632 2.09744 7.96784 1.38145 9.29717C0.951611 10.4252 0.796843 11.6285 0.928415 12.8195C0.84903 15.7091 2.16346 18.4794 4.50955 20.3673C6.15795 21.2499 8.00506 21.76 9.90283 21.8567C11.066 22.0478 12.2561 22.0478 13.4193 21.8567C14.6057 21.6458 15.5967 20.888 16.0512 19.8439C16.2062 19.1833 16.2715 18.5071 16.2453 17.8312C16.3963 14.5102 18.8988 11.793 20.9698 9.07577C21.4701 8.55079 21.7928 7.89955 21.8975 7.20392C21.8854 6.43372 21.5967 5.68956 21.0777 5.09054C19.6755 3.19856 16.2022 -0.283488 13.4193 0.0184231C10.6363 0.320335 6.62372 4.32569 4.46641 5.97614Z" fill="#F4AD7D"/>
</svg>
