<svg width="52" height="63" viewBox="0 0 52 63" fill="none" xmlns="http://www.w3.org/2000/svg">
<path d="M16.8307 1.76199C18.39 0.448356 20.4098 -0.172334 22.43 0.0413429C28.5626 0.00828945 34.6466 1.13965 40.3646 3.37642C43.5351 4.48751 46.4142 6.31064 48.7847 8.7083C51.1718 11.173 52.2712 14.6273 51.7527 18.0338C50.7002 23.047 45.4377 26.1484 43.7116 30.9705C42.3223 34.8366 43.3117 38.5753 43.3538 42.4627C43.3816 45.6057 43.1564 48.7457 42.6801 51.8519C41.7118 57.906 36.1757 63.3441 21.9669 62.983C10.5157 62.6643 3.8849 56.1429 2.2009 48.6443C-0.0789219 36.1984 0.518985 23.3894 3.94805 11.2149C10.1196 12.6485 16.4339 13.3612 22.7668 13.3392C29.4818 13.3954 36.1778 12.6105 42.7012 11.0025C43.8169 17.5027 43.7958 30.5244 43.438 40.2535" fill="#606161"/>
</svg>
