<svg width="35" height="21" viewBox="0 0 35 21" fill="none" xmlns="http://www.w3.org/2000/svg">
<path d="M3.16448 10.0237C2.13299 10.7863 1.3502 11.8297 0.912505 13.0254C0.677845 14.0085 0.772962 15.0402 1.18358 15.9655C2.34997 18.3256 4.56036 20.019 7.16798 20.5503C9.7444 21.0404 12.3827 21.1306 14.9873 20.8175L23.328 20.2624C25.4502 20.2124 27.5553 19.8734 29.5834 19.255C31.6136 18.6269 33.2894 17.1979 34.2125 15.3075C34.7037 13.9158 34.8954 12.4383 34.7755 10.9694C34.7755 4.16418 32.3567 -1.36638 24.8084 0.298955C16.9017 1.76505 9.47428 5.10224 3.16448 10.0237Z" fill="#505F98"/>
</svg>
