<svg width="167" height="367" viewBox="0 0 167 367" fill="none" xmlns="http://www.w3.org/2000/svg">
<path d="M167 15.8511V351.677C166.998 360.01 160.223 366.763 151.867 366.761H15.1331C6.77692 366.763 0.0016739 360.01 5.61835e-08 351.677V15.8511C-0.000345565 11.849 1.59392 8.01069 4.43201 5.18075C7.2701 2.35082 11.1195 0.76113 15.1331 0.761475H35.5941V3.38193C35.596 10.2433 41.1738 15.8051 48.055 15.8071H117.592C124.474 15.8071 130.053 10.2442 130.053 3.38193V0.761475H151.867C155.881 0.76113 159.73 2.35082 162.568 5.18075C165.406 8.01069 167 11.849 167 15.8511Z" fill="white"/>
</svg>
