<svg width="87" height="82" viewBox="0 0 87 82" fill="none" xmlns="http://www.w3.org/2000/svg">
<path d="M53.9498 4.54394C51.1481 0.982415 46.259 -0.225786 42.0999 1.61557C37.6937 3.70172 35.5242 8.71106 31.649 11.6569C30.7676 12.3109 29.8284 12.8847 28.8429 13.3713C28.2612 13.69 27.6407 13.9336 26.9966 14.0959C26.2722 14.2542 25.516 14.2322 24.7948 14.4044C23.4208 14.8046 22.2503 15.7056 21.5184 16.9264C21.1556 17.5648 20.7534 18.1803 20.3142 18.7694C19.9092 19.2462 19.4062 19.6314 18.9779 20.0878C17.437 21.7301 17.0186 24.0881 16.6673 26.3043C15.4615 27.5633 14.1458 28.7141 12.7356 29.7432C12.2923 30.0815 11.8 30.3516 11.2755 30.5444C9.91954 30.9801 8.42473 30.4257 7.26923 29.598C6.11372 28.7704 5.17252 27.6794 4.03348 26.8296C2.98653 28.3135 1.89268 29.8024 0.777172 31.2364C0.608692 31.5093 0.352248 31.7179 0.0493556 31.8284C-0.160222 32.5273 0.342309 33.2513 0.718261 33.8779L2.73682 37.2422C3.40404 38.4667 4.22246 39.604 5.17316 40.6279C6.13764 41.6574 7.45488 42.2929 8.86696 42.4097C9.75834 42.4017 10.6409 42.2341 11.4723 41.9151C15.3186 40.632 18.8501 38.5843 22.5091 36.844C23.1719 36.4683 23.9144 36.2524 24.6768 36.2136C25.46 36.1929 26.1609 36.6932 26.3897 37.4364C26.8094 39.5379 27.2263 41.6318 27.8032 43.6963C28.3473 45.6434 28.8527 47.6005 29.3195 49.5677C29.6312 50.7715 29.8539 51.9962 29.9858 53.2321C30.0461 53.9338 30.0526 54.6389 30.059 55.3432L30.1369 63.8544C30.1452 64.7707 29.6185 65.3422 29.2132 66.1657C28.5919 67.4434 28.4983 68.9112 28.9523 70.2564C29.18 70.9203 29.5362 71.5337 29.7885 72.1887C30.3984 73.7724 30.3748 75.5164 30.343 77.2115L30.2702 81.0954C30.2517 81.2562 30.281 81.4188 30.3546 81.5633C30.5936 81.9336 31.1697 81.7167 31.5341 81.4662L33.3652 80.2076C35.8151 80.5426 38.2901 80.6612 40.7611 80.562C47.7888 80.4612 54.8182 80.7385 61.8294 81.2253C64.1687 81.3877 66.5868 81.5637 68.7981 80.7896C69.9202 80.3969 70.954 79.769 72.1008 79.4543C72.5742 79.381 73.0233 79.1976 73.4115 78.919C74.0532 78.3302 73.8827 77.2968 73.621 76.4695C73.392 75.7457 73.132 75.0325 72.841 74.33C72.5414 73.6842 72.2972 73.0145 72.111 72.328C71.7597 70.7787 72.1014 68.9887 71.1289 67.7272C68.9521 64.9034 70.4928 60.559 69.5793 57.1218C69.2838 56.0097 68.847 54.9375 68.5699 53.8207C68.3961 53.1196 68.2861 52.4047 68.1764 51.691C67.8899 50.1471 67.7478 48.5803 67.7518 47.0105C67.7784 46.225 67.878 45.444 67.9776 44.6643L68.6691 39.2499C69.5337 40.851 70.1346 42.5789 70.4489 44.3682C71.0783 47.0407 71.8532 49.6774 72.7704 52.2667C73.2917 53.8282 73.8132 55.3899 74.3763 56.9371C74.7329 57.8177 75.0076 58.7288 75.1967 59.6591C75.3214 60.4094 75.3248 61.1742 75.4124 61.9298C75.6019 63.5497 76.1734 65.1027 77.0807 66.4628C77.2484 66.7781 77.5259 67.0224 77.8615 67.1501C78.0882 67.1917 78.3214 67.1823 78.5439 67.1226C80.9877 66.644 83.3529 65.8325 85.5724 64.711C86.0451 64.5174 86.4555 64.1996 86.7594 63.7916C87.3569 62.8284 86.6889 61.6246 86.3984 60.531C86.0871 59.3587 86.1597 57.9482 85.2288 57.1626C81.9872 54.4266 83.5963 48.8717 81.9739 44.9687C81.6891 44.2837 81.3572 43.6172 81.1117 42.9174C80.9239 42.3823 80.7878 41.8311 80.6508 41.2812C79.5182 36.7352 78.306 32.2098 77.0142 27.7048C75.6748 23.034 75.8181 18.1688 74.132 13.6097C73.815 12.6541 73.4011 11.7329 72.8965 10.8602C72.3259 9.94843 71.5635 9.16959 70.6614 8.57696C68.2143 6.9722 65.744 5.60548 62.8696 5.02325C59.9953 4.44101 56.8834 4.53109 53.9498 4.54394Z" fill="#D0CDE1"/>
</svg>
