<svg width="85" height="68" viewBox="0 0 85 68" fill="none" xmlns="http://www.w3.org/2000/svg">
<path d="M42.2515 33.9485L17.2877 0.893912C16.9738 0.478303 16.4677 0.252914 15.948 0.297261C15.4282 0.341609 14.9678 0.649461 14.7293 1.1122L0.523821 28.6678C-0.0501435 29.7811 -0.157191 31.0763 0.226228 32.2684C0.609647 33.4605 1.45213 34.4519 2.56833 35.0244L64.4604 66.7693C65.5766 67.3418 66.8751 67.4485 68.0702 67.0661C69.2653 66.6836 70.2592 65.8433 70.8331 64.7299L84.7953 37.6464C85.0864 37.0817 85.0659 36.4074 84.741 35.8614C84.4162 35.3153 83.8326 34.9743 83.1963 34.9586L42.2515 33.9485Z" fill="#F2F2F2"/>
</svg>
